<?xml version="1.0" encoding="UTF-8" standalone="no"?>
<!DOCTYPE svg PUBLIC "-//W3C//DTD SVG 1.1//EN" "http://www.w3.org/Graphics/SVG/1.1/DTD/svg11.dtd">
<svg width="100%" height="100%" viewBox="0 0 600 600" version="1.1" xmlns="http://www.w3.org/2000/svg" xmlns:xlink="http://www.w3.org/1999/xlink" xml:space="preserve" xmlns:serif="http://www.serif.com/" style="fill-rule:evenodd;clip-rule:evenodd;stroke-linecap:round;stroke-linejoin:round;stroke-miterlimit:1.5;">
    <g transform="matrix(1.65726,0,0,0.83844,-141.947,-17.1201)">
        <path d="M266.836,118.019C266.836,110.949 263.932,105.21 260.356,105.21L247.395,105.21C243.819,105.21 240.915,110.949 240.915,118.019L240.915,480.457C240.915,487.526 243.819,493.266 247.395,493.266L260.356,493.266C263.932,493.266 266.836,487.526 266.836,480.457L266.836,118.019Z" style="fill:rgb(36,36,36);stroke:white;stroke-width:3.05px;"/>
    </g>
    <g transform="matrix(1.84657,0,0,2.17401,-281.714,-322.491)">
        <path d="M287.051,303.498C287.165,301.539 289.068,300 291.378,300L315.701,300C318.01,300 319.914,301.539 320.028,303.498C321.04,320.863 325.519,397.695 326.578,415.866C326.637,416.872 326.207,417.855 325.389,418.585C324.572,419.315 323.437,419.728 322.251,419.728C313.349,419.728 293.73,419.728 284.828,419.728C283.641,419.728 282.507,419.315 281.689,418.585C280.872,417.855 280.442,416.872 280.501,415.866C281.56,397.695 286.038,320.863 287.051,303.498Z" style="fill:rgb(36,36,36);stroke:white;stroke-width:1.98px;"/>
    </g>
    <g transform="matrix(2.50771,0,0,2.7755,-464.578,-341.402)">
        <path d="M273.904,150.48L324.611,150.48C325.564,150.48 326.467,150.094 327.073,149.43C327.568,148.887 328.18,148.216 328.725,147.617C329.562,146.699 330.937,146.34 332.187,146.713C337.775,148.378 353.213,152.98 360.485,155.148C361.418,155.426 362.441,155.3 363.258,154.806C364.075,154.312 364.595,153.506 364.666,152.62C364.675,152.506 364.684,152.394 364.693,152.284C364.782,151.181 364.164,150.129 363.102,149.577C356.322,146.052 331.781,133.291 327.316,130.969C326.857,130.731 326.339,130.599 325.809,130.586C319.86,130.444 282.832,129.558 275.62,129.386C274.837,129.367 274.073,129.609 273.475,130.067C272.77,130.605 271.806,131.343 271.099,131.884C270.493,132.347 269.717,132.59 268.924,132.564C267.542,132.52 265.305,132.448 263.846,132.401C262.934,132.371 262.08,131.99 261.499,131.354C260.554,130.319 259.084,128.709 258.123,127.657C257.517,126.993 256.615,126.608 255.662,126.608L248.27,126.608C247.397,126.608 246.563,126.931 245.961,127.501C245.359,128.072 245.042,128.84 245.083,129.627C245.328,134.303 245.795,143.228 246.03,147.733C246.111,149.271 247.514,150.48 249.217,150.48C251.799,150.48 255.395,150.48 257.404,150.48C258.36,150.48 259.266,150.092 259.872,149.423C260.503,148.727 261.317,147.828 261.903,147.182C262.393,146.642 263.082,146.281 263.844,146.165C265.077,145.978 267.042,145.681 268.586,145.447C269.966,145.238 271.335,145.865 271.964,146.994C272.827,148.544 273.904,150.48 273.904,150.48" style="fill:rgb(36,36,36);stroke:white;stroke-width:1.51px;"/>
    </g>
</svg>
